#!OML:ASF H:\GeneralSubjects\Female5\Project 1\Capture day 1\Session 1\Female5.ASF
:FULLY-SPECIFIED
:DEGREES
118
root -0.300753 15.94 3.23554 178.59 -54.0631 -143.166
lowerback 11.2226 6.68372 3.45484
upperback -11.7327 9.55384 -0.786592
thorax -19.1959 3.57871 -5.3321
lowerneck -22.203 -0.228733 4.39777
upperneck 29.0206 -3.93116 3.86582
head 13.5849 -0.87297 0.0255817
rclavicle -3.69739e-014 1.74931e-014
rhumerus -35.8106 21.3519 -65.6696
rradius 64.7113
rwrist -10.8329
rhand -16.1411 -11.6831
rfingers 7.12502
rthumb 10.0641 -41.4224
lclavicle -3.69739e-014 1.74931e-014
lhumerus -59.322 3.15175 47.5184
lradius 35.2775
lwrist -3.73337
lhand -32.2616 26.3315
lfingers 7.12502
lthumb -5.50131 56.24
rfemur 16.3325 25.6881 37.5697
rtibia -8.38033
rfoot -36.4499 -22.6697
rtoes 27.6215
lfemur -58.6695 -0.572234 12.2528
ltibia 26.3237
lfoot 325.752 -4.43862
ltoes -2.89079
119
root -0.583108 16.0485 3.22731 178.307 -54.5171 -142.355
lowerback 11.0537 6.57644 3.18802
upperback -11.5958 9.37538 -0.581383
thorax -19.0029 3.57547 -4.87428
lowerneck -22.2157 -0.345345 4.00034
upperneck 29.0208 -3.98423 3.98333
head 13.5958 -0.921952 0.129814
rclavicle -9.97899e-014 -6.52014e-014
rhumerus -36.3378 21.8548 -65.3873
rradius 63.2327
rwrist -10.6167
rhand -16.4111 -12.09
rfingers 7.12502
rthumb 9.80351 -41.8418
lclavicle -9.97899e-014 -6.52014e-014
lhumerus -59.5232 3.27047 48.9624
lradius 35.4356
lwrist -3.45467
lhand -31.7113 25.8713
lfingers 7.12502
lthumb -4.97001 55.793
rfemur 13.931 16.2841 33.5775
rtibia -5.12154
rfoot -21.9455 -21.9977
rtoes 30.1456
lfemur -58.0881 -1.97173 12.4305
ltibia 25.6729
lfoot 324.415 -2.90187
ltoes -2.82366
120
root -0.862326 16.1488 3.21708 177.747 -55.128 -141.726
lowerback 11.118 6.44634 3.04385
upperback -11.4263 9.19948 -0.409752
thorax -18.8959 3.54576 -4.5534
lowerneck -21.9426 -0.45634 3.92701
upperneck 28.8572 -4.07486 3.95964
head 13.4688 -0.981921 0.11771
rclavicle 1.24439e-013 7.15625e-014
rhumerus -37.2844 21.9092 -65.0556
rradius 61.825
rwrist -9.13012
rhand -16.5608 -12.8047
rfingers 7.12502
rthumb 9.65907 -42.5632
lclavicle 1.24439e-013 7.15625e-014
lhumerus -59.5015 3.61385 50.0298
lradius 35.1958
lwrist -3.66536
lhand -31.3231 25.5554
lfingers 7.12502
lthumb -4.59514 55.4856
rfemur 12.6133 9.52969 30.6807
rtibia -0.106963
rfoot -13.9327 -19.2655
rtoes 35.8755
lfemur -56.9296 -3.7626 12.3142
ltibia 24.5343
lfoot 324.272 5.71013
ltoes -15.0881
121
root -1.14123 16.2395 3.21039 176.853 -55.9064 -141.113
lowerback 11.2961 6.29161 3.15947
upperback -11.2058 9.04539 -0.252801
thorax -18.7495 3.49182 -4.40405
lowerneck -21.6462 -0.516029 3.85095
upperneck 28.7461 -4.10828 3.96963
head 13.3609 -1.01243 0.129865
rclavicle 1.43125e-014 3.97569e-014
rhumerus -38.5165 21.7632 -64.7599
rradius 60.0918
rwrist -8.62991
rhand -17.3831 -11.5843
rfingers 7.12502
rthumb 8.86563 -41.378
lclavicle 1.43125e-014 3.97569e-014
lhumerus -59.3162 4.10732 50.7781
lradius 34.8028
lwrist -4.39418
lhand -31.0946 25.0928
lfingers 7.12502
lthumb -4.37451 55.0276
rfemur 11.6022 4.57292 28.2782
rtibia 6.64974
rfoot -10.9256 -19.481
rtoes 29.3685
lfemur -55.3119 -6.10544 12.1267
ltibia 23.0588
lfoot 323.486 -0.268914
ltoes -6.03554
122
root -1.41983 16.3263 3.20746 176.059 -56.9623 -140.886
lowerback 11.5343 6.05559 3.20111
upperback -10.9682 8.76339 -0.10661
thorax -18.6412 3.38575 -4.20261
lowerneck -21.3763 -0.655555 3.75343
upperneck 28.6817 -4.204 3.83182
head 13.2729 -1.09065 0.0772387
rclavicle -7.15625e-015 -7.95139e-015
rhumerus -39.876 21.3596 -64.3646
rradius 58.4834
rwrist -8.79807
rhand -17.0711 -12.042
rfingers 7.12502
rthumb 9.16673 -41.8228
lclavicle -7.15625e-015 -7.95139e-015
lhumerus -59.2354 4.43892 51.4783
lradius 34.5842
lwrist -5.00712
lhand -30.8482 25.0284
lfingers 7.12502
lthumb -4.13654 54.968
rfemur 10.5938 0.945748 25.9834
rtibia 14.7694
rfoot -8.48481 -20.5555
rtoes 25.4512
lfemur -53.5495 -9.13542 11.7453
ltibia 21.3199
lfoot 323.25 -3.47557
ltoes -3.8218
123
root -1.69371 16.4095 3.20484 175.638 -58.3035 -141.184
lowerback 11.7499 5.7373 3.0159
upperback -10.7707 8.31269 0.00671742
thorax -18.6101 3.22392 -3.8734
lowerneck -21.2269 -0.768651 3.52518
upperneck 28.8393 -4.2474 3.69689
head 13.305 -1.15347 0.05632
rclavicle -6.75868e-014 -1.90833e-014
rhumerus -41.3757 20.9387 -63.8629
rradius 56.983
rwrist -9.45018
rhand -16.7307 -14.2528
rfingers 7.12502
rthumb 9.49521 -44.0188
lclavicle -6.75868e-014 -1.90833e-014
lhumerus -59.2672 4.62849 52.0771
lradius 34.4988
lwrist -5.57079
lhand -30.609 25.4973
lfingers 7.12502
lthumb -3.90557 55.4412
rfemur 9.56994 -1.89002 23.6502
rtibia 23.6407
rfoot -4.61003 -24.3564
rtoes -5.60198
lfemur -51.9061 -12.4104 10.8631
ltibia 19.4999
lfoot 323.297 -5.37938
ltoes -3.40913
124
root -1.95883 16.4832 3.20454 175.503 -59.8807 -141.726
lowerback 11.8621 5.33653 2.84058
upperback -10.6597 7.72827 0.0334532
thorax -18.6094 2.98804 -3.6038
lowerneck -21.0549 -0.898893 3.25325
upperneck 29.0376 -4.31812 3.59673
head 13.3518 -1.2293 0.0514862
rclavicle -2.90226e-014 3.65764e-014
rhumerus -43.0012 20.4623 -63.4147
rradius 55.5303
rwrist -10.1587
rhand -16.9976 -16.2186
rfingers 7.12502
rthumb 9.2377 -45.9962
lclavicle -2.90226e-014 3.65764e-014
lhumerus -59.2937 4.76137 52.3614
lradius 34.5245
lwrist -5.9996
lhand -30.6116 25.7474
lfingers 7.12502
lthumb -3.90808 55.6913
rfemur 8.57005 -4.0176 21.4928
rtibia 32.7431
rfoot -3.05056 -23.8853
rtoes -11.2139
lfemur -50.5435 -15.4889 9.48971
ltibia 17.8998
lfoot 323.967 -7.9028
ltoes -3.7081
125
root -2.21414 16.5484 3.20453 175.312 -61.5088 -142.239
lowerback 11.9475 4.87514 2.66652
upperback -10.6001 7.06287 0.100736
thorax -18.6643 2.71469 -3.26384
lowerneck -20.8458 -1.00289 3.16529
upperneck 29.3414 -4.38469 3.34995
head 13.4273 -1.30429 -0.041675
rclavicle 6.36111e-015 -3.18055e-015
rhumerus -44.7866 19.8846 -63.0316
rradius 54.3258
rwrist -11.0307
rhand -17.6595 -16.4173
rfingers 7.12502
rthumb 8.59892 -46.2222
lclavicle 6.36111e-015 -3.18055e-015
lhumerus -59.4845 4.85971 52.3914
lradius 34.8493
lwrist -6.03195
lhand -30.3534 25.6229
lfingers 7.12502
lthumb -3.65877 55.5712
rfemur 7.6172 -5.54778 19.6795
rtibia 41.5181
rfoot -0.803618 -21.5186
rtoes -20.1367
lfemur -49.1329 -18.0819 7.73008
ltibia 16.5908
lfoot 323.857 -5.05147
ltoes -4.44397
126
root -2.45805 16.6088 3.20008 175.018 -62.996 -142.762
lowerback 12.0312 4.43185 2.30699
upperback -10.5262 6.40439 0.302418
thorax -18.7335 2.48226 -2.66467
lowerneck -20.6172 -0.925904 3.37019
upperneck 29.7267 -4.18524 2.75946
head 13.5156 -1.27764 -0.273962
rclavicle 1.19271e-014 6.04305e-014
rhumerus -46.5136 19.389 -62.5715
rradius 53.1262
rwrist -11.8388
rhand -18.1854 -16.2521
rfingers 7.12502
rthumb 8.09138 -46.0772
lclavicle 1.19271e-014 6.04305e-014
lhumerus -59.7146 5.08166 52.2742
lradius 35.2838
lwrist -5.79218
lhand -29.9963 25.4095
lfingers 7.12502
lthumb -3.31393 55.3635
rfemur 6.65781 -6.83108 18.0346
rtibia 50.0256
rfoot 1.92519 -19.0217
rtoes -26.4466
lfemur -47.421 -19.9427 5.58836
ltibia 15.5026
lfoot 324.433 -1.97839
ltoes -6.11531
127
root -2.6953 16.662 3.18988 174.764 -64.206 -143.393
lowerback 12.089 4.1 1.89752
upperback -10.4469 5.88793 0.489561
thorax -18.762 2.32227 -2.08615
lowerneck -20.6291 -0.945198 3.03671
upperneck 30.4146 -4.17494 2.73938
head 13.8175 -1.30978 -0.229233
rclavicle -3.97569e-014 -3.81667e-014
rhumerus -48.0513 18.9419 -62.1351
rradius 51.665
rwrist -12.7843
rhand -18.7273 -16.4812
rfingers 7.12502
rthumb 7.56833 -46.3257
lclavicle -3.97569e-014 -3.81667e-014
lhumerus -59.7059 5.27854 52.0443
lradius 35.694
lwrist -5.26418
lhand -30.079 25.5386
lfingers 7.12502
lthumb -3.39378 55.4913
rfemur 5.61706 -7.77954 16.5576
rtibia 58.454
rfoot 4.5388 -16.125
rtoes -25.664
lfemur -45.3519 -21.262 3.29916
ltibia 14.4196
lfoot 326.002 -2.48801
ltoes -6.26201
